<svg width="196" height="63" viewBox="0 0 196 63" fill="none" xmlns="http://www.w3.org/2000/svg">
<path d="M18.9437 42.8614C18.9437 43.7788 19.2708 44.5539 19.9286 45.1904C20.5829 45.8269 21.3723 46.1469 22.2897 46.1469H28.082V53.0735H22.2861C20.7322 53.0735 19.2708 52.7855 17.8983 52.2095C16.5222 51.6299 15.331 50.8334 14.3141 49.82C13.2971 48.8031 12.4935 47.6225 11.8962 46.2642C11.2988 44.913 11.0001 43.4587 11.0001 41.9049V32.9479H6.70117V26.3199H11.0001V15.5104H18.9437V42.8614ZM28.0785 26.3199V32.9479H23.6586L19.9571 26.3199H28.0785Z" fill="#2D62EC"/>
<path d="M31.7196 11.272H39.6597L39.6028 53.0701H31.6592L31.7196 11.272ZM59.0848 26.7965C60.8627 29.186 61.7517 32.9657 61.7517 38.1394V53.0665H53.8152V38.1821C53.8152 37.1118 53.7832 36.077 53.7263 35.085C53.6658 34.0929 53.4561 33.2182 53.1005 32.4644C52.7414 31.707 52.1653 31.1132 51.3688 30.6758C50.5723 30.242 49.438 30.0216 47.9659 30.0216C46.8103 30.0216 45.5587 30.3416 44.2039 30.9781L44.1435 31.035L44.0866 30.9176L41.2206 25.7475L41.2811 25.6871C42.3158 24.7626 43.4715 24.0728 44.7444 23.6105C46.0174 23.1483 47.4112 22.9171 48.926 22.9171C53.7227 22.9136 57.1114 24.2114 59.0848 26.7965Z" fill="#2D62EC"/>
<path d="M97.4626 23.2159V53.0737H89.6399V38.1039C89.6399 36.9483 89.423 35.8709 88.9857 34.8717C88.5448 33.8725 87.9403 32.9942 87.1651 32.2369C86.39 31.4759 85.4939 30.8892 84.477 30.4697C83.4636 30.0501 82.3968 29.8403 81.2803 29.8403C80.1247 29.8403 79.0508 30.0607 78.0552 30.4981C77.0632 30.939 76.1742 31.5293 75.3991 32.2653C74.6204 33.0049 74.0159 33.8832 73.5785 34.9001C73.1412 35.9206 72.9243 37.0052 72.9243 38.1643C72.9243 39.2844 73.1412 40.344 73.5785 41.3432C74.0159 42.3424 74.6239 43.2206 75.3991 43.978C76.1742 44.739 77.0596 45.3363 78.0552 45.7772C79.0508 46.2182 80.1247 46.4351 81.2803 46.4351C82.5142 46.4351 83.5702 46.2182 84.445 45.7808H84.5054V45.8981L87.4887 51.2105L87.4318 51.2709C85.4797 52.7857 83.0724 53.5395 80.2065 53.5395C78.0979 53.5395 76.1067 53.1412 74.2363 52.3448C72.3624 51.5518 70.7339 50.4531 69.3365 49.0592C67.9426 47.6654 66.8403 46.0333 66.0225 44.1629C65.2047 42.2926 64.7993 40.3014 64.7993 38.1928C64.7993 36.0415 65.2047 34.0325 66.0225 32.1586C66.8403 30.2883 67.9462 28.6562 69.3365 27.2623C70.7303 25.8685 72.3624 24.7662 74.2363 23.9484C76.1031 23.1341 78.0979 22.7252 80.2065 22.7252C82.2759 22.7252 84.0894 23.1128 85.6432 23.8808C87.1971 24.6489 88.527 25.7654 89.6435 27.2232V23.2159H97.4626Z" fill="#2D62EC"/>
<path d="M119.32 45.5461L122.186 50.7446V50.8015C120.116 52.6328 117.549 53.5502 114.484 53.5502C109.627 53.5502 106.185 52.2345 104.155 49.6104C102.284 47.26 101.349 43.5193 101.349 38.3812V23.2159H109.531V38.3812C109.531 39.4586 109.563 40.4934 109.62 41.4854C109.68 42.481 109.901 43.3593 110.278 44.1131C110.655 44.8705 111.241 45.475 112.038 45.9337C112.831 46.3924 113.969 46.62 115.441 46.62C116.12 46.62 116.774 46.5204 117.411 46.3213C118.047 46.1221 118.644 45.8661 119.203 45.5426H119.32V45.5461ZM131.861 23.2159V53.2515H123.679V23.2159H131.861Z" fill="#2D62EC"/>
<path d="M135.441 23.2158H143.385V53.0736H135.441V23.2158ZM167.806 22.7357C169.676 22.7357 171.262 23.1055 172.553 23.8416C173.847 24.5776 174.893 25.5412 175.689 26.7395C176.482 27.9343 177.062 29.2748 177.421 30.7718C177.78 32.2652 177.958 33.7693 177.958 35.2805V53.0771H170.018L170.075 35.2343C170.075 34.5942 169.957 33.9969 169.719 33.4386C169.481 32.8803 169.15 32.379 168.734 31.9416C168.315 31.5007 167.817 31.1522 167.241 30.8927C166.661 30.6366 166.057 30.5051 165.42 30.5051C164.108 30.5051 162.992 30.9744 162.078 31.9132C161.16 32.8519 160.705 33.9577 160.705 35.2378V53.0807H152.762V35.2307C152.762 34.5907 152.644 33.9933 152.406 33.435C152.168 32.8768 151.826 32.3754 151.389 31.9381C150.952 31.4971 150.443 31.1593 149.867 30.9211C149.291 30.6793 148.644 30.562 147.929 30.562C147.887 30.562 147.709 30.2668 147.389 29.673C147.069 29.0792 146.713 28.4285 146.315 27.7174C145.878 26.8889 145.337 25.9395 144.704 24.8763L144.761 24.759C146.471 23.4149 148.363 22.7428 150.436 22.7428C152.666 22.7428 154.475 23.2371 155.869 24.2256C157.263 25.2105 158.337 26.4408 159.094 27.8987C159.254 27.6214 159.414 27.3867 159.574 27.1875C160.687 25.7261 161.953 24.6203 163.368 23.87C164.769 23.1126 166.252 22.7357 167.806 22.7357Z" fill="#2D62EC"/>
<path d="M186.314 44.1734C187.63 44.1734 188.743 44.6321 189.66 45.5459C190.574 46.4633 191.011 47.5762 190.972 48.8919C190.972 50.204 190.506 51.3205 189.571 52.2343C188.636 53.1517 187.512 53.6068 186.197 53.6068C184.924 53.5677 183.829 53.0877 182.915 52.1739C181.997 51.26 181.56 50.1257 181.599 48.771C181.599 47.4945 182.054 46.4028 182.972 45.4854C183.889 44.5716 185.002 44.1343 186.314 44.1734Z" fill="#FEB029"/>
<path d="M18.9437 42.8614C18.9437 43.7787 19.2708 44.5539 19.9286 45.1904C20.5829 45.8269 21.3723 46.1469 22.2897 46.1469H28.082V53.0735H22.2861C20.7322 53.0735 19.2708 52.7855 17.8983 52.2095C16.5222 51.6299 15.331 50.8334 14.3141 49.82C13.2971 48.8031 12.4935 47.6225 11.8962 46.2642C11.2988 44.913 11.0001 43.4587 11.0001 41.9049V32.9479H6.70117V26.3199H11.0001V15.5104H18.9437V42.8614ZM28.0785 26.3199V32.9479H23.6586L19.9571 26.3199H28.0785Z" fill="#2D62EC"/>
<path d="M31.7196 11.272H39.6597L39.6028 53.0701H31.6592L31.7196 11.272ZM59.0848 26.7965C60.8627 29.1859 61.7517 32.9657 61.7517 38.1394V53.0665H53.8152V38.182C53.8152 37.1118 53.7832 36.077 53.7263 35.085C53.6658 34.0929 53.4561 33.2182 53.1005 32.4644C52.7414 31.707 52.1653 31.1132 51.3688 30.6758C50.5723 30.242 49.438 30.0216 47.9659 30.0216C46.8103 30.0216 45.5587 30.3416 44.2039 30.9781L44.1435 31.0349L44.0866 30.9176L41.2206 25.7475L41.2811 25.6871C42.3158 24.7626 43.4715 24.0727 44.7444 23.6105C46.0174 23.1482 47.4112 22.9171 48.926 22.9171C53.7227 22.9136 57.1114 24.2114 59.0848 26.7965Z" fill="#2D62EC"/>
<path d="M97.4626 23.2159V53.0737H89.6399V38.1039C89.6399 36.9483 89.423 35.8709 88.9857 34.8717C88.5448 33.8725 87.9403 32.9942 87.1651 32.2369C86.39 31.4759 85.4939 30.8892 84.477 30.4696C83.4636 30.0501 82.3968 29.8403 81.2803 29.8403C80.1247 29.8403 79.0508 30.0607 78.0552 30.4981C77.0632 30.939 76.1742 31.5293 75.3991 32.2653C74.6204 33.0049 74.0159 33.8832 73.5785 34.9001C73.1412 35.9206 72.9243 37.0051 72.9243 38.1643C72.9243 39.2844 73.1412 40.344 73.5785 41.3432C74.0159 42.3424 74.6239 43.2206 75.3991 43.978C76.1742 44.739 77.0596 45.3363 78.0552 45.7772C79.0508 46.2182 80.1247 46.4351 81.2803 46.4351C82.5142 46.4351 83.5702 46.2182 84.445 45.7808H84.5054V45.8981L87.4887 51.2105L87.4318 51.2709C85.4797 52.7857 83.0724 53.5395 80.2065 53.5395C78.0979 53.5395 76.1067 53.1412 74.2363 52.3447C72.3624 51.5518 70.7339 50.4531 69.3365 49.0592C67.9426 47.6654 66.8403 46.0333 66.0225 44.1629C65.2047 42.2926 64.7993 40.3013 64.7993 38.1928C64.7993 36.0415 65.2047 34.0325 66.0225 32.1586C66.8403 30.2883 67.9462 28.6562 69.3365 27.2623C70.7303 25.8685 72.3624 24.7662 74.2363 23.9484C76.1031 23.1341 78.0979 22.7252 80.2065 22.7252C82.2759 22.7252 84.0894 23.1128 85.6432 23.8808C87.1971 24.6488 88.527 25.7654 89.6435 27.2232V23.2159H97.4626Z" fill="#2D62EC"/>
<path d="M119.32 45.5461L122.186 50.7446V50.8015C120.116 52.6328 117.549 53.5501 114.484 53.5501C109.627 53.5501 106.185 52.2345 104.155 49.6103C102.284 47.26 101.349 43.5193 101.349 38.3812V23.2159H109.531V38.3812C109.531 39.4586 109.563 40.4934 109.62 41.4854C109.68 42.481 109.901 43.3593 110.278 44.1131C110.655 44.8705 111.241 45.475 112.038 45.9337C112.831 46.3924 113.969 46.62 115.441 46.62C116.12 46.62 116.774 46.5204 117.411 46.3213C118.047 46.1221 118.644 45.8661 119.203 45.5425H119.32V45.5461ZM131.861 23.2159V53.2515H123.679V23.2159H131.861Z" fill="#2D62EC"/>
<path d="M135.441 23.2157H143.385V53.0736H135.441V23.2157ZM167.806 22.7357C169.676 22.7357 171.262 23.1055 172.553 23.8416C173.847 24.5776 174.893 25.5412 175.689 26.7395C176.482 27.9343 177.062 29.2748 177.421 30.7718C177.78 32.2652 177.958 33.7693 177.958 35.2805V53.0771H170.018L170.075 35.2343C170.075 34.5942 169.957 33.9968 169.719 33.4386C169.481 32.8803 169.15 32.379 168.734 31.9416C168.315 31.5007 167.817 31.1522 167.241 30.8927C166.661 30.6366 166.057 30.5051 165.42 30.5051C164.108 30.5051 162.992 30.9744 162.078 31.9132C161.16 32.8519 160.705 33.9577 160.705 35.2378V53.0807H152.762V35.2307C152.762 34.5907 152.644 33.9933 152.406 33.435C152.168 32.8768 151.826 32.3754 151.389 31.9381C150.952 31.4971 150.443 31.1593 149.867 30.9211C149.291 30.6793 148.644 30.562 147.929 30.562C147.887 30.562 147.709 30.2668 147.389 29.673C147.069 29.0792 146.713 28.4285 146.315 27.7174C145.878 26.8889 145.337 25.9395 144.704 24.8763L144.761 24.759C146.471 23.4149 148.363 22.7428 150.436 22.7428C152.666 22.7428 154.475 23.2371 155.869 24.2256C157.263 25.2105 158.337 26.4408 159.094 27.8987C159.254 27.6213 159.414 27.3867 159.574 27.1875C160.687 25.7261 161.953 24.6203 163.368 23.87C164.769 23.1126 166.252 22.7357 167.806 22.7357Z" fill="#2D62EC"/>
<path d="M186.314 44.1734C187.63 44.1734 188.743 44.6321 189.66 45.5459C190.574 46.4633 191.011 47.5762 190.972 48.8919C190.972 50.2039 190.506 51.3205 189.571 52.2343C188.636 53.1517 187.512 53.6068 186.197 53.6068C184.924 53.5677 183.829 53.0877 182.915 52.1738C181.997 51.26 181.56 50.1257 181.599 48.771C181.599 47.4945 182.054 46.4028 182.972 45.4854C183.889 44.5716 185.002 44.1342 186.314 44.1734Z" fill="#FEB029"/>
</svg>
